<mxfile host="app.diagrams.net" modified="2023-04-20T12:26:36.076Z" agent="Mozilla/5.0 (Windows NT 10.0; Win64; x64) AppleWebKit/537.36 (KHTML, like Gecko) Chrome/111.0.0.0 Safari/537.36" etag="rmOd2PUpOXRntaEUz3Ch" version="21.2.1" type="github">
  <diagram name="JOIN分类" id="ajbURzdYclpMywsQjJ3K">
    <mxGraphModel dx="2049" dy="1011" grid="1" gridSize="10" guides="1" tooltips="1" connect="1" arrows="1" fold="1" page="1" pageScale="1" pageWidth="827" pageHeight="1169" math="0" shadow="0">
      <root>
        <mxCell id="0" />
        <mxCell id="1" parent="0" />
        <mxCell id="jb7_rmF7QIzovICEutT_-22" value="" style="ellipse;whiteSpace=wrap;html=1;aspect=fixed;fillColor=none;strokeWidth=2;" vertex="1" parent="1">
          <mxGeometry x="390" y="810" width="120" height="120" as="geometry" />
        </mxCell>
        <mxCell id="jb7_rmF7QIzovICEutT_-23" value="" style="ellipse;whiteSpace=wrap;html=1;aspect=fixed;fillColor=none;strokeWidth=2;" vertex="1" parent="1">
          <mxGeometry x="460" y="810" width="121" height="120" as="geometry" />
        </mxCell>
        <mxCell id="jb7_rmF7QIzovICEutT_-24" value="&lt;font style=&quot;font-size: 36px;&quot;&gt;A&lt;/font&gt;" style="text;html=1;strokeColor=none;fillColor=none;align=center;verticalAlign=middle;whiteSpace=wrap;rounded=0;" vertex="1" parent="1">
          <mxGeometry x="400" y="847.5" width="60" height="45" as="geometry" />
        </mxCell>
        <mxCell id="jb7_rmF7QIzovICEutT_-26" value="&lt;font style=&quot;font-size: 36px;&quot;&gt;B&lt;/font&gt;" style="text;html=1;strokeColor=none;fillColor=none;align=center;verticalAlign=middle;whiteSpace=wrap;rounded=0;" vertex="1" parent="1">
          <mxGeometry x="510" y="847.5" width="60" height="45" as="geometry" />
        </mxCell>
        <mxCell id="jb7_rmF7QIzovICEutT_-21" value="" style="whiteSpace=wrap;html=1;shape=mxgraph.basic.pointed_oval;fillColor=#0091cd;" vertex="1" parent="1">
          <mxGeometry x="451" y="821" width="68" height="98" as="geometry" />
        </mxCell>
        <mxCell id="jb7_rmF7QIzovICEutT_-28" value="" style="ellipse;whiteSpace=wrap;html=1;aspect=fixed;fillColor=#0091cd;strokeWidth=2;" vertex="1" parent="1">
          <mxGeometry x="10" y="41" width="120" height="120" as="geometry" />
        </mxCell>
        <mxCell id="jb7_rmF7QIzovICEutT_-29" value="" style="ellipse;whiteSpace=wrap;html=1;aspect=fixed;fillColor=none;strokeWidth=2;" vertex="1" parent="1">
          <mxGeometry x="80" y="41" width="121" height="120" as="geometry" />
        </mxCell>
        <mxCell id="jb7_rmF7QIzovICEutT_-30" value="&lt;font style=&quot;font-size: 36px;&quot;&gt;A&lt;/font&gt;" style="text;html=1;strokeColor=none;fillColor=none;align=center;verticalAlign=middle;whiteSpace=wrap;rounded=0;" vertex="1" parent="1">
          <mxGeometry x="20" y="78.5" width="60" height="45" as="geometry" />
        </mxCell>
        <mxCell id="jb7_rmF7QIzovICEutT_-31" value="&lt;font style=&quot;font-size: 36px;&quot;&gt;B&lt;/font&gt;" style="text;html=1;strokeColor=none;fillColor=none;align=center;verticalAlign=middle;whiteSpace=wrap;rounded=0;" vertex="1" parent="1">
          <mxGeometry x="130" y="78.5" width="60" height="45" as="geometry" />
        </mxCell>
        <mxCell id="jb7_rmF7QIzovICEutT_-33" value="&lt;font style=&quot;font-size: 14px;&quot;&gt;SELECT &amp;lt;column_list&amp;gt;&lt;br&gt;&lt;div style=&quot;&quot;&gt;&lt;span style=&quot;background-color: initial;&quot;&gt;FROM A&lt;/span&gt;&lt;/div&gt;&lt;div style=&quot;&quot;&gt;&lt;span style=&quot;background-color: initial;&quot;&gt;LEFT OUTER JOIN B&lt;/span&gt;&lt;/div&gt;&lt;div style=&quot;&quot;&gt;&lt;span style=&quot;background-color: initial;&quot;&gt;ON A.Key = B.Key&lt;/span&gt;&lt;/div&gt;&lt;/font&gt;" style="text;html=1;strokeColor=none;fillColor=none;align=left;verticalAlign=middle;whiteSpace=wrap;rounded=0;" vertex="1" parent="1">
          <mxGeometry x="31" y="161" width="159" height="70" as="geometry" />
        </mxCell>
        <mxCell id="jb7_rmF7QIzovICEutT_-34" value="&lt;span style=&quot;font-size: 14px;&quot;&gt;Left Outer Join&lt;/span&gt;" style="text;html=1;strokeColor=none;fillColor=none;align=center;verticalAlign=middle;whiteSpace=wrap;rounded=0;" vertex="1" parent="1">
          <mxGeometry x="51" y="11" width="119" height="30" as="geometry" />
        </mxCell>
        <mxCell id="jb7_rmF7QIzovICEutT_-35" value="" style="ellipse;whiteSpace=wrap;html=1;aspect=fixed;fillColor=#0091CD;strokeWidth=2;" vertex="1" parent="1">
          <mxGeometry x="10" y="305" width="120" height="120" as="geometry" />
        </mxCell>
        <mxCell id="jb7_rmF7QIzovICEutT_-37" value="&lt;font style=&quot;font-size: 36px;&quot;&gt;A&lt;/font&gt;" style="text;html=1;strokeColor=none;fillColor=none;align=center;verticalAlign=middle;whiteSpace=wrap;rounded=0;" vertex="1" parent="1">
          <mxGeometry x="20" y="342.5" width="60" height="45" as="geometry" />
        </mxCell>
        <mxCell id="jb7_rmF7QIzovICEutT_-38" value="&lt;font style=&quot;font-size: 36px;&quot;&gt;B&lt;/font&gt;" style="text;html=1;strokeColor=none;fillColor=none;align=center;verticalAlign=middle;whiteSpace=wrap;rounded=0;" vertex="1" parent="1">
          <mxGeometry x="130" y="342.5" width="60" height="45" as="geometry" />
        </mxCell>
        <mxCell id="jb7_rmF7QIzovICEutT_-36" value="" style="ellipse;whiteSpace=wrap;html=1;aspect=fixed;fillColor=none;strokeWidth=2;" vertex="1" parent="1">
          <mxGeometry x="79" y="305" width="121" height="120" as="geometry" />
        </mxCell>
        <mxCell id="jb7_rmF7QIzovICEutT_-40" value="&lt;font style=&quot;font-size: 14px;&quot;&gt;SELECT &amp;lt;column_list&amp;gt;&lt;br&gt;&lt;div style=&quot;&quot;&gt;&lt;span style=&quot;background-color: initial;&quot;&gt;FROM A&lt;/span&gt;&lt;/div&gt;&lt;div style=&quot;&quot;&gt;&lt;span style=&quot;background-color: initial;&quot;&gt;LEFT OUTER JOIN B&lt;/span&gt;&lt;/div&gt;&lt;div style=&quot;&quot;&gt;&lt;span style=&quot;background-color: initial;&quot;&gt;ON A.Key = B.Key&lt;/span&gt;&lt;/div&gt;&lt;div style=&quot;&quot;&gt;&lt;span style=&quot;background-color: initial;&quot;&gt;WHERE B.Key IS NULL&lt;/span&gt;&lt;/div&gt;&lt;/font&gt;" style="text;html=1;strokeColor=none;fillColor=none;align=left;verticalAlign=middle;whiteSpace=wrap;rounded=0;" vertex="1" parent="1">
          <mxGeometry x="31" y="425" width="159" height="85" as="geometry" />
        </mxCell>
        <mxCell id="jb7_rmF7QIzovICEutT_-41" value="&lt;span style=&quot;font-size: 14px;&quot;&gt;Left Anti Join&lt;br&gt;Null Aware Left Anti Join&lt;br&gt;&lt;/span&gt;" style="text;html=1;strokeColor=none;fillColor=none;align=center;verticalAlign=middle;whiteSpace=wrap;rounded=0;" vertex="1" parent="1">
          <mxGeometry x="15" y="260" width="179" height="45" as="geometry" />
        </mxCell>
        <mxCell id="jb7_rmF7QIzovICEutT_-39" value="" style="whiteSpace=wrap;html=1;shape=mxgraph.basic.pointed_oval;fillColor=#FFFFFF;strokeWidth=2;" vertex="1" parent="1">
          <mxGeometry x="71" y="316" width="67" height="98" as="geometry" />
        </mxCell>
        <mxCell id="jb7_rmF7QIzovICEutT_-63" value="" style="ellipse;whiteSpace=wrap;html=1;aspect=fixed;fillColor=#0091CD;strokeWidth=2;" vertex="1" parent="1">
          <mxGeometry x="207.5" y="560" width="120" height="120" as="geometry" />
        </mxCell>
        <mxCell id="jb7_rmF7QIzovICEutT_-64" value="&lt;font style=&quot;font-size: 36px;&quot;&gt;A&lt;/font&gt;" style="text;html=1;strokeColor=none;fillColor=none;align=center;verticalAlign=middle;whiteSpace=wrap;rounded=0;" vertex="1" parent="1">
          <mxGeometry x="217.5" y="597.5" width="60" height="45" as="geometry" />
        </mxCell>
        <mxCell id="jb7_rmF7QIzovICEutT_-65" value="" style="ellipse;whiteSpace=wrap;html=1;aspect=fixed;fillColor=#0091CD;strokeWidth=2;" vertex="1" parent="1">
          <mxGeometry x="276.5" y="560" width="121" height="120" as="geometry" />
        </mxCell>
        <mxCell id="jb7_rmF7QIzovICEutT_-66" value="" style="whiteSpace=wrap;html=1;shape=mxgraph.basic.pointed_oval;fillColor=#0091CD;strokeWidth=2;" vertex="1" parent="1">
          <mxGeometry x="267.5" y="571" width="67" height="98" as="geometry" />
        </mxCell>
        <mxCell id="jb7_rmF7QIzovICEutT_-67" value="&lt;font style=&quot;font-size: 14px;&quot;&gt;SELECT &amp;lt;column_list&amp;gt;&lt;br&gt;&lt;div style=&quot;&quot;&gt;&lt;span style=&quot;background-color: initial;&quot;&gt;FROM A&lt;/span&gt;&lt;/div&gt;&lt;div style=&quot;&quot;&gt;&lt;span style=&quot;background-color: initial;&quot;&gt;FULL OUTER JOIN B&lt;/span&gt;&lt;/div&gt;&lt;div style=&quot;&quot;&gt;&lt;span style=&quot;background-color: initial;&quot;&gt;ON A.Key = B.Key&lt;/span&gt;&lt;/div&gt;&lt;/font&gt;" style="text;html=1;strokeColor=none;fillColor=none;align=left;verticalAlign=middle;whiteSpace=wrap;rounded=0;" vertex="1" parent="1">
          <mxGeometry x="230" y="680" width="157.5" height="80" as="geometry" />
        </mxCell>
        <mxCell id="jb7_rmF7QIzovICEutT_-68" value="&lt;span style=&quot;font-size: 14px;&quot;&gt;Full (Outer) Join&lt;br&gt;Cross Join&lt;/span&gt;" style="text;html=1;strokeColor=none;fillColor=none;align=center;verticalAlign=middle;whiteSpace=wrap;rounded=0;" vertex="1" parent="1">
          <mxGeometry x="214" y="520" width="176" height="31" as="geometry" />
        </mxCell>
        <mxCell id="jb7_rmF7QIzovICEutT_-69" value="&lt;font style=&quot;font-size: 36px;&quot;&gt;B&lt;/font&gt;" style="text;html=1;strokeColor=none;fillColor=none;align=center;verticalAlign=middle;whiteSpace=wrap;rounded=0;" vertex="1" parent="1">
          <mxGeometry x="327.5" y="597.5" width="60" height="45" as="geometry" />
        </mxCell>
        <mxCell id="jb7_rmF7QIzovICEutT_-74" value="" style="group" vertex="1" connectable="0" parent="1">
          <mxGeometry x="680" y="277.5" width="190" height="237.5" as="geometry" />
        </mxCell>
        <mxCell id="jb7_rmF7QIzovICEutT_-48" value="" style="ellipse;whiteSpace=wrap;html=1;aspect=fixed;fillColor=none;strokeWidth=2;" vertex="1" parent="jb7_rmF7QIzovICEutT_-74">
          <mxGeometry y="32.5" width="120" height="120" as="geometry" />
        </mxCell>
        <mxCell id="jb7_rmF7QIzovICEutT_-49" value="&lt;font style=&quot;font-size: 36px;&quot;&gt;A&lt;/font&gt;" style="text;html=1;strokeColor=none;fillColor=none;align=center;verticalAlign=middle;whiteSpace=wrap;rounded=0;" vertex="1" parent="jb7_rmF7QIzovICEutT_-74">
          <mxGeometry x="10" y="70" width="60" height="45" as="geometry" />
        </mxCell>
        <mxCell id="jb7_rmF7QIzovICEutT_-52" value="" style="ellipse;whiteSpace=wrap;html=1;aspect=fixed;fillColor=#0091CD;strokeWidth=2;" vertex="1" parent="jb7_rmF7QIzovICEutT_-74">
          <mxGeometry x="69" y="32.5" width="121" height="120" as="geometry" />
        </mxCell>
        <mxCell id="jb7_rmF7QIzovICEutT_-51" value="" style="whiteSpace=wrap;html=1;shape=mxgraph.basic.pointed_oval;fillColor=#FFFFFF;strokeWidth=2;" vertex="1" parent="jb7_rmF7QIzovICEutT_-74">
          <mxGeometry x="60" y="43.5" width="67" height="98" as="geometry" />
        </mxCell>
        <mxCell id="jb7_rmF7QIzovICEutT_-53" value="&lt;font style=&quot;font-size: 14px;&quot;&gt;SELECT &amp;lt;column_list&amp;gt;&lt;br&gt;&lt;div style=&quot;&quot;&gt;&lt;span style=&quot;background-color: initial;&quot;&gt;FROM A&lt;/span&gt;&lt;/div&gt;&lt;div style=&quot;&quot;&gt;&lt;span style=&quot;background-color: initial;&quot;&gt;RIGHT OUTER JOIN B&lt;/span&gt;&lt;/div&gt;&lt;div style=&quot;&quot;&gt;&lt;span style=&quot;background-color: initial;&quot;&gt;ON A.Key = B.Key&lt;/span&gt;&lt;/div&gt;&lt;div style=&quot;&quot;&gt;&lt;span style=&quot;background-color: initial;&quot;&gt;WHERE A.Key IS NULL&lt;/span&gt;&lt;/div&gt;&lt;/font&gt;" style="text;html=1;strokeColor=none;fillColor=none;align=left;verticalAlign=middle;whiteSpace=wrap;rounded=0;" vertex="1" parent="jb7_rmF7QIzovICEutT_-74">
          <mxGeometry x="21" y="152.5" width="159" height="85" as="geometry" />
        </mxCell>
        <mxCell id="jb7_rmF7QIzovICEutT_-54" value="&lt;span style=&quot;font-size: 14px;&quot;&gt;Right Anti Join&lt;/span&gt;" style="text;html=1;strokeColor=none;fillColor=none;align=center;verticalAlign=middle;whiteSpace=wrap;rounded=0;" vertex="1" parent="jb7_rmF7QIzovICEutT_-74">
          <mxGeometry x="41" width="119" height="30" as="geometry" />
        </mxCell>
        <mxCell id="jb7_rmF7QIzovICEutT_-55" value="&lt;font style=&quot;font-size: 36px;&quot;&gt;B&lt;/font&gt;" style="text;html=1;strokeColor=none;fillColor=none;align=center;verticalAlign=middle;whiteSpace=wrap;rounded=0;" vertex="1" parent="jb7_rmF7QIzovICEutT_-74">
          <mxGeometry x="120" y="70" width="60" height="45" as="geometry" />
        </mxCell>
        <mxCell id="jb7_rmF7QIzovICEutT_-75" value="&lt;span style=&quot;font-size: 14px;&quot;&gt;* Inner Join 是不去重的，根据连接条件可能会输出多行，而 Semi Join 只返回满足条件的第一条，相当于去重了，对应了 IN/EXISTS 子查询&lt;br&gt;* Cross Join 是笛卡尔积，正常是不需要条件的，返回两个表的所有组合；Full Outer Join 只要某个表存在匹配那么就会返回，是左连接、右连接、内连接的并集&lt;br&gt;* Anti Join 语义上返回第一个表中在第二个表中不存在的记录，也就是 NOT IN/NOT EXISTS 子查询&lt;br&gt;&lt;/span&gt;" style="text;html=1;strokeColor=none;fillColor=none;align=left;verticalAlign=middle;whiteSpace=wrap;rounded=0;" vertex="1" parent="1">
          <mxGeometry x="10" y="980" width="1000" height="100" as="geometry" />
        </mxCell>
        <mxCell id="jb7_rmF7QIzovICEutT_-76" value="" style="group" vertex="1" connectable="0" parent="1">
          <mxGeometry x="680" y="10" width="191" height="220" as="geometry" />
        </mxCell>
        <mxCell id="jb7_rmF7QIzovICEutT_-43" value="" style="ellipse;whiteSpace=wrap;html=1;aspect=fixed;fillColor=#0091CD;strokeWidth=2;" vertex="1" parent="jb7_rmF7QIzovICEutT_-76">
          <mxGeometry x="70" y="30" width="121" height="120" as="geometry" />
        </mxCell>
        <mxCell id="jb7_rmF7QIzovICEutT_-44" value="&lt;font style=&quot;font-size: 36px;&quot;&gt;A&lt;/font&gt;" style="text;html=1;strokeColor=none;fillColor=none;align=center;verticalAlign=middle;whiteSpace=wrap;rounded=0;" vertex="1" parent="jb7_rmF7QIzovICEutT_-76">
          <mxGeometry x="10" y="67.5" width="60" height="45" as="geometry" />
        </mxCell>
        <mxCell id="jb7_rmF7QIzovICEutT_-45" value="&lt;font style=&quot;font-size: 36px;&quot;&gt;B&lt;/font&gt;" style="text;html=1;strokeColor=none;fillColor=none;align=center;verticalAlign=middle;whiteSpace=wrap;rounded=0;" vertex="1" parent="jb7_rmF7QIzovICEutT_-76">
          <mxGeometry x="120" y="67.5" width="60" height="45" as="geometry" />
        </mxCell>
        <mxCell id="jb7_rmF7QIzovICEutT_-46" value="&lt;font style=&quot;font-size: 14px;&quot;&gt;SELECT &amp;lt;column_list&amp;gt;&lt;br&gt;&lt;div style=&quot;&quot;&gt;&lt;span style=&quot;background-color: initial;&quot;&gt;FROM A&lt;/span&gt;&lt;/div&gt;&lt;div style=&quot;&quot;&gt;&lt;span style=&quot;background-color: initial;&quot;&gt;RIGHT OUTER JOIN B&lt;/span&gt;&lt;/div&gt;&lt;div style=&quot;&quot;&gt;&lt;span style=&quot;background-color: initial;&quot;&gt;ON A.Key = B.Key&lt;/span&gt;&lt;/div&gt;&lt;/font&gt;" style="text;html=1;strokeColor=none;fillColor=none;align=left;verticalAlign=middle;whiteSpace=wrap;rounded=0;" vertex="1" parent="jb7_rmF7QIzovICEutT_-76">
          <mxGeometry x="21" y="150" width="159" height="70" as="geometry" />
        </mxCell>
        <mxCell id="jb7_rmF7QIzovICEutT_-47" value="&lt;span style=&quot;font-size: 14px;&quot;&gt;Right Outer Join&lt;/span&gt;" style="text;html=1;strokeColor=none;fillColor=none;align=center;verticalAlign=middle;whiteSpace=wrap;rounded=0;" vertex="1" parent="jb7_rmF7QIzovICEutT_-76">
          <mxGeometry x="41" width="119" height="30" as="geometry" />
        </mxCell>
        <mxCell id="jb7_rmF7QIzovICEutT_-42" value="" style="ellipse;whiteSpace=wrap;html=1;aspect=fixed;fillColor=none;strokeWidth=2;" vertex="1" parent="jb7_rmF7QIzovICEutT_-76">
          <mxGeometry y="30" width="120" height="120" as="geometry" />
        </mxCell>
        <mxCell id="jb7_rmF7QIzovICEutT_-77" value="" style="group" vertex="1" connectable="0" parent="1">
          <mxGeometry x="360" y="150" width="191" height="230" as="geometry" />
        </mxCell>
        <mxCell id="jb7_rmF7QIzovICEutT_-8" value="" style="whiteSpace=wrap;html=1;shape=mxgraph.basic.pointed_oval;fillColor=#0091cd;" vertex="1" parent="jb7_rmF7QIzovICEutT_-77">
          <mxGeometry x="61" y="51" width="68" height="98" as="geometry" />
        </mxCell>
        <mxCell id="jb7_rmF7QIzovICEutT_-6" value="" style="ellipse;whiteSpace=wrap;html=1;aspect=fixed;fillColor=none;strokeWidth=2;" vertex="1" parent="jb7_rmF7QIzovICEutT_-77">
          <mxGeometry y="40" width="120" height="120" as="geometry" />
        </mxCell>
        <mxCell id="jb7_rmF7QIzovICEutT_-7" value="" style="ellipse;whiteSpace=wrap;html=1;aspect=fixed;fillColor=none;strokeWidth=2;" vertex="1" parent="jb7_rmF7QIzovICEutT_-77">
          <mxGeometry x="70" y="40" width="121" height="120" as="geometry" />
        </mxCell>
        <mxCell id="jb7_rmF7QIzovICEutT_-10" value="&lt;font style=&quot;font-size: 36px;&quot;&gt;A&lt;/font&gt;" style="text;html=1;strokeColor=none;fillColor=none;align=center;verticalAlign=middle;whiteSpace=wrap;rounded=0;" vertex="1" parent="jb7_rmF7QIzovICEutT_-77">
          <mxGeometry x="10" y="77.5" width="60" height="45" as="geometry" />
        </mxCell>
        <mxCell id="jb7_rmF7QIzovICEutT_-11" value="&lt;font style=&quot;font-size: 14px;&quot;&gt;SELECT &amp;lt;column_list&amp;gt;&lt;br&gt;&lt;div style=&quot;&quot;&gt;&lt;span style=&quot;background-color: initial;&quot;&gt;FROM A&lt;/span&gt;&lt;/div&gt;&lt;div style=&quot;&quot;&gt;&lt;span style=&quot;background-color: initial;&quot;&gt;INNER JOIN B&lt;/span&gt;&lt;/div&gt;&lt;div style=&quot;&quot;&gt;&lt;span style=&quot;background-color: initial;&quot;&gt;ON A.Key = B.Key&lt;/span&gt;&lt;/div&gt;&lt;/font&gt;" style="text;html=1;strokeColor=none;fillColor=none;align=left;verticalAlign=middle;whiteSpace=wrap;rounded=0;" vertex="1" parent="jb7_rmF7QIzovICEutT_-77">
          <mxGeometry x="21" y="160" width="159" height="70" as="geometry" />
        </mxCell>
        <mxCell id="jb7_rmF7QIzovICEutT_-12" value="&lt;font style=&quot;font-size: 36px;&quot;&gt;B&lt;/font&gt;" style="text;html=1;strokeColor=none;fillColor=none;align=center;verticalAlign=middle;whiteSpace=wrap;rounded=0;" vertex="1" parent="jb7_rmF7QIzovICEutT_-77">
          <mxGeometry x="120" y="77.5" width="60" height="45" as="geometry" />
        </mxCell>
        <mxCell id="jb7_rmF7QIzovICEutT_-13" value="&lt;span style=&quot;font-size: 14px;&quot;&gt;Inner Join&lt;br&gt;Semi Join&lt;br&gt;&lt;/span&gt;" style="text;html=1;strokeColor=none;fillColor=none;align=center;verticalAlign=middle;whiteSpace=wrap;rounded=0;" vertex="1" parent="jb7_rmF7QIzovICEutT_-77">
          <mxGeometry x="35.5" width="119" height="40" as="geometry" />
        </mxCell>
        <mxCell id="jb7_rmF7QIzovICEutT_-56" value="" style="ellipse;whiteSpace=wrap;html=1;aspect=fixed;fillColor=#0091CD;strokeWidth=2;" vertex="1" parent="1">
          <mxGeometry x="537.5" y="560" width="120" height="120" as="geometry" />
        </mxCell>
        <mxCell id="jb7_rmF7QIzovICEutT_-57" value="&lt;font style=&quot;font-size: 36px;&quot;&gt;A&lt;/font&gt;" style="text;html=1;strokeColor=none;fillColor=none;align=center;verticalAlign=middle;whiteSpace=wrap;rounded=0;" vertex="1" parent="1">
          <mxGeometry x="547.5" y="597.5" width="60" height="45" as="geometry" />
        </mxCell>
        <mxCell id="jb7_rmF7QIzovICEutT_-58" value="" style="ellipse;whiteSpace=wrap;html=1;aspect=fixed;fillColor=#0091CD;strokeWidth=2;" vertex="1" parent="1">
          <mxGeometry x="606.5" y="560" width="121" height="120" as="geometry" />
        </mxCell>
        <mxCell id="jb7_rmF7QIzovICEutT_-59" value="" style="whiteSpace=wrap;html=1;shape=mxgraph.basic.pointed_oval;fillColor=#FFFFFF;strokeWidth=2;" vertex="1" parent="1">
          <mxGeometry x="597.5" y="571" width="67" height="98" as="geometry" />
        </mxCell>
        <mxCell id="jb7_rmF7QIzovICEutT_-60" value="&lt;font style=&quot;font-size: 14px;&quot;&gt;SELECT &amp;lt;column_list&amp;gt;&lt;br&gt;&lt;div style=&quot;&quot;&gt;&lt;span style=&quot;background-color: initial;&quot;&gt;FROM A&lt;/span&gt;&lt;/div&gt;&lt;div style=&quot;&quot;&gt;&lt;span style=&quot;background-color: initial;&quot;&gt;FULL OUTER JOIN B&lt;/span&gt;&lt;/div&gt;&lt;div style=&quot;&quot;&gt;&lt;span style=&quot;background-color: initial;&quot;&gt;ON A.Key = B.Key&lt;/span&gt;&lt;/div&gt;&lt;div style=&quot;&quot;&gt;&lt;span style=&quot;background-color: initial;&quot;&gt;WHERE A.Key IS NULL&amp;nbsp;&lt;/span&gt;&lt;span style=&quot;background-color: initial;&quot;&gt;OR B.Key IS NULL&lt;/span&gt;&lt;/div&gt;&lt;/font&gt;" style="text;html=1;strokeColor=none;fillColor=none;align=left;verticalAlign=middle;whiteSpace=wrap;rounded=0;" vertex="1" parent="1">
          <mxGeometry x="520" y="680" width="294" height="85" as="geometry" />
        </mxCell>
        <mxCell id="jb7_rmF7QIzovICEutT_-62" value="&lt;font style=&quot;font-size: 36px;&quot;&gt;B&lt;/font&gt;" style="text;html=1;strokeColor=none;fillColor=none;align=center;verticalAlign=middle;whiteSpace=wrap;rounded=0;" vertex="1" parent="1">
          <mxGeometry x="657.5" y="597.5" width="60" height="45" as="geometry" />
        </mxCell>
      </root>
    </mxGraphModel>
  </diagram>
</mxfile>
